<svg xmlns="http://www.w3.org/2000/svg" xmlns:xlink="http://www.w3.org/1999/xlink" preserveAspectRatio="xMidYMid" width="512" height="464" viewBox="0 0 512 464">
  <defs>
    <style>
      .cls-1 {
        fill: #000;
        fill-rule: evenodd;
      }
    </style>
  </defs>
  <path d="M438.361,128.509 C431.179,91.385 398.663,64.143 360.209,64.143 C356.149,64.143 352.011,64.480 347.850,65.148 C323.246,24.825 279.334,0.000 231.953,0.000 C165.314,0.000 109.134,47.997 98.166,112.895 C94.656,112.466 91.144,112.250 87.662,112.250 C39.325,112.249 0.000,151.582 0.000,199.929 C0.000,248.275 39.325,287.608 87.661,287.608 L151.790,287.608 C155.932,287.608 159.290,284.249 159.290,280.107 C159.290,275.964 155.932,272.605 151.790,272.605 L87.661,272.605 C47.596,272.605 15.000,240.002 15.000,199.929 C15.000,159.854 47.596,127.253 87.661,127.253 C92.717,127.253 97.862,127.806 102.953,128.897 C105.026,129.341 107.192,128.887 108.911,127.646 C110.631,126.406 111.746,124.494 111.978,122.385 C118.737,61.167 170.314,15.002 231.950,15.002 C275.718,15.002 316.162,38.824 337.498,77.172 C339.120,80.089 342.477,81.581 345.727,80.837 C350.625,79.714 355.497,79.145 360.207,79.145 C393.205,79.145 420.815,103.859 424.432,136.632 C424.851,140.435 428.065,143.310 431.886,143.310 C431.902,143.310 431.918,143.310 431.933,143.310 C432.131,143.309 432.328,143.301 432.536,143.287 C468.100,143.387 496.999,172.354 496.999,207.946 C496.999,243.599 467.999,272.605 432.354,272.605 L303.580,272.605 L303.580,238.269 C312.888,235.129 319.612,226.320 319.612,215.964 L319.612,119.750 C319.612,106.771 309.055,96.213 296.080,96.213 L199.888,96.213 C186.912,96.213 176.356,106.771 176.356,119.750 L176.356,215.964 C176.356,226.320 183.080,235.128 192.388,238.269 L192.388,272.605 L183.857,272.605 C179.715,272.605 176.357,275.964 176.357,280.107 C176.357,284.249 179.715,287.608 183.857,287.608 L192.388,287.608 L192.388,320.712 L142.026,320.712 C138.887,311.402 130.080,304.677 119.726,304.677 C106.750,304.677 96.194,315.236 96.194,328.214 C96.194,341.191 106.751,351.750 119.726,351.750 C130.080,351.750 138.887,345.025 142.026,335.715 L192.388,335.715 L192.388,370.051 C183.080,373.191 176.356,382.000 176.356,392.356 C176.356,405.335 186.913,415.893 199.888,415.893 C212.863,415.893 223.420,405.334 223.420,392.356 C223.420,382.000 216.696,373.191 207.388,370.051 L207.388,287.608 L240.485,287.608 L240.485,418.158 C231.177,421.298 224.453,430.107 224.453,440.463 C224.453,453.442 235.010,464.000 247.984,464.000 C260.959,464.000 271.516,453.441 271.516,440.463 C271.516,430.107 264.792,421.299 255.484,418.158 L255.484,287.608 L288.581,287.608 L288.581,370.051 C279.273,373.191 272.549,382.000 272.549,392.356 C272.549,405.335 283.106,415.893 296.081,415.893 C309.056,415.893 319.613,405.334 319.613,392.356 C319.613,382.000 312.889,373.191 303.581,370.051 L303.581,335.715 L353.943,335.715 C357.082,345.025 365.889,351.750 376.243,351.750 C389.219,351.750 399.776,341.191 399.776,328.214 C399.776,315.236 389.219,304.677 376.243,304.677 C365.889,304.677 357.083,311.402 353.943,320.712 L303.581,320.712 L303.581,287.608 L432.355,287.608 C476.272,287.608 512.000,251.872 512.000,207.946 C511.999,166.042 479.481,131.591 438.361,128.509 ZM119.726,336.747 C115.021,336.747 111.194,332.918 111.194,328.214 C111.194,323.509 115.022,319.680 119.726,319.680 C124.431,319.680 128.259,323.509 128.259,328.214 C128.259,332.918 124.431,336.747 119.726,336.747 ZM208.419,392.356 C208.419,397.061 204.592,400.890 199.887,400.890 C195.182,400.890 191.355,397.061 191.355,392.356 C191.355,387.650 195.183,383.822 199.887,383.822 C204.591,383.822 208.419,387.651 208.419,392.356 ZM240.484,272.605 L207.387,272.605 L207.387,239.501 L240.484,239.501 L240.484,272.605 ZM256.515,440.463 C256.515,445.168 252.688,448.997 247.983,448.997 C243.279,448.997 239.452,445.168 239.452,440.463 C239.452,435.758 243.280,431.929 247.983,431.929 C252.688,431.929 256.515,435.758 256.515,440.463 ZM288.580,272.605 L255.483,272.605 L255.483,239.501 L288.580,239.501 L288.580,272.605 ZM255.482,224.498 L255.482,207.430 L280.046,207.430 C284.188,207.430 287.546,204.072 287.546,199.929 L287.546,167.857 C287.546,163.714 284.188,160.356 280.046,160.356 C275.904,160.356 272.546,163.714 272.546,167.857 L272.546,192.427 L223.418,192.427 L223.418,143.288 L280.046,143.288 C284.188,143.288 287.546,139.929 287.546,135.786 C287.546,131.644 284.188,128.285 280.046,128.285 L215.918,128.285 C211.776,128.285 208.418,131.644 208.418,135.786 L208.418,199.929 C208.418,204.072 211.776,207.430 215.918,207.430 L240.482,207.430 L240.482,224.498 L199.885,224.498 C195.180,224.498 191.353,220.669 191.353,215.964 L191.353,119.750 L191.355,119.750 C191.355,115.044 195.183,111.216 199.887,111.216 L296.079,111.216 C300.784,111.216 304.611,115.045 304.611,119.750 L304.611,215.964 C304.611,220.670 300.783,224.498 296.079,224.498 L255.482,224.498 ZM304.612,392.356 C304.612,397.061 300.784,400.890 296.080,400.890 C291.375,400.890 287.548,397.061 287.548,392.356 C287.548,387.650 291.376,383.822 296.080,383.822 C300.784,383.822 304.612,387.651 304.612,392.356 ZM376.241,319.679 C380.946,319.679 384.774,323.508 384.774,328.213 C384.774,332.918 380.946,336.746 376.241,336.746 C371.536,336.746 367.709,332.918 367.709,328.213 C367.709,323.508 371.536,319.679 376.241,319.679 Z" class="cls-1"/>
</svg>
